<svg xmlns="http://www.w3.org/2000/svg" viewBox="0 0 512 512">
  <defs>
    <radialGradient id="messengerGrad" cx="19.25%" cy="99.44%" r="108.96%" fx="19.25%" fy="99.44%">
      <stop offset="0%" style="stop-color:#0099FF"/>
      <stop offset="60.99%" style="stop-color:#A033FF"/>
      <stop offset="93.46%" style="stop-color:#FF5280"/>
      <stop offset="100%" style="stop-color:#FF7061"/>
    </radialGradient>
  </defs>
  <path fill="url(#messengerGrad)" d="M256,28.4C124.2,28.4,17.1,128.8,17.1,256c0,68.5,28.1,129.8,73.3,172.3c3.8,3.4,6.1,8.2,6.2,13.4l1.3,41.7c0.4,13.2,13.8,21.8,25.5,16.6L174.2,479c3.7-1.6,7.8-2,11.8-1.1c21.2,5.8,43.7,8.9,67,8.9c131.8,0,238.9-100.4,238.9-227.6S387.8,28.4,256,28.4z"/>
  <path fill="#FFFFFF" d="M107.6,327.3L178.2,218c11.6-17.3,35.4-21.3,51.7-8.7l55.9,41.9c5.2,3.9,12.3,3.8,17.4-0.2L387.4,184c8.4-8.3,20.1,3.4,13.3,13.3L330,306.3c-11.6,17.3-35.4,21.3-51.7,8.7l-55.9-41.9c-5.2-3.9-12.3-3.8-17.4,0.2L120.9,340.6C112.5,348.9,100.8,337.2,107.6,327.3z"/>
</svg>
